<svg height="473pt" viewBox="-3 0 473 473.89413" width="473pt" xmlns="http://www.w3.org/2000/svg"><path d="m325.457031 128.625c-17.109375-13.824219-27.074219-34.628906-27.117187-56.625v-48c0-13.253906-10.746094-24-24-24h-80c-13.257813 0-24 10.746094-24 24v48c-.132813 22.082031-10.179688 42.933594-27.363282 56.800781-44.695312 36.660157-63.117187 96.507813-46.773437 151.960938 16.339844 55.449219 64.277344 95.738281 121.710937 102.300781 5.53125.617188 11.089844.929688 16.65625.9375 35.371094.101562 69.511719-12.976562 95.769532-36.679688 31.367187-28.042968 48.886718-68.410156 47.945312-110.476562s-20.25-81.609375-52.84375-108.21875zm-139.117187-104.625c0-4.417969 3.578125-8 8-8h80c4.417968 0 8 3.582031 8 8v40h-96zm133.34375 311.398438c-34.542969 30.933593-83.117188 40.753906-126.964844 25.675781s-76.105469-52.695313-84.320312-98.328125c-8.214844-45.632813 8.902343-92.140625 44.738281-121.5625 18.710937-15.164063 30.542969-37.210938 32.832031-61.183594h96.730469c2.214843 23.902344 13.980469 45.894531 32.628906 61.007812 28.980469 23.648438 46.152344 58.800782 46.988281 96.195313.835938 37.398437-14.742187 73.28125-42.632812 98.203125zm0 0"/><path d="m150.050781 166.398438 12.046875 10.53125c3.46875-3.972657 7.265625-7.652344 11.34375-10.992188l-10.160156-12.335938c-4.75 3.898438-9.175781 8.179688-13.230469 12.796876zm0 0"/><path d="m153.042969 189.078125-13.546875-8.503906c-13.25 21.246093-19.078125 46.289062-16.566406 71.203125 1.789062 17.28125 7.597656 33.90625 16.960937 48.542968l13.472656-8.625c-8.011719-12.519531-12.984375-26.742187-14.511719-41.527343-2.164062-21.371094 2.828126-42.855469 14.191407-61.089844zm0 0"/><path d="m58.976562 404.046875 45.25-45.25 11.3125 11.316406-45.246093 45.246094zm0 0"/><path d="m164.492188 469.753906 16.5625-61.820312 15.453124 4.140625-16.5625 61.820312zm0 0"/><path d="m272.167969 412.070312 15.457031-4.140624 16.5625 61.820312-15.457031 4.140625zm0 0"/><path d="m353.136719 370.109375 11.3125-11.3125 45.25 45.246094-11.316407 11.316406zm0 0"/><path d="m58.976562 75.957031 11.3125-11.316406 45.25 45.25-11.316406 11.3125zm0 0"/><path d="m402.261719 293.277344 4.140625-15.453125 61.820312 16.5625-4.140625 15.453125zm0 0"/><path d="m.445312 185.605469 4.140626-15.453125 61.820312 16.5625-4.140625 15.453125zm0 0"/><path d="m402.273438 186.71875 61.820312-16.5625 4.140625 15.453125-61.820313 16.566406zm0 0"/><path d="m.445312 294.390625 61.820313-16.5625 4.140625 15.457031-61.820312 16.5625zm0 0"/><path d="m353.132812 109.886719 45.25-45.246094 11.3125 11.3125-45.25 45.25zm0 0"/></svg>